<svg id="Layer_1" data-name="Layer 1" xmlns="http://www.w3.org/2000/svg" xmlns:xlink="http://www.w3.org/1999/xlink" viewBox="0 0 715.72 508.81"><defs><style>.cls-1{fill:none;}.cls-2{isolation:isolate;}.cls-3{clip-path:url(#clip-path);}.cls-4{clip-path:url(#clip-path-2);}.cls-5{clip-path:url(#clip-path-6);}.cls-6{clip-path:url(#clip-path-7);}.cls-7{fill:#64c3a7;}</style><clipPath id="clip-path" transform="translate(-1.15 -105.4)"><polygon class="cls-1" points="-200.91 860.7 -155.16 30.15 920.6 -140.23 874.85 690.32 -200.91 860.7"/></clipPath><clipPath id="clip-path-2" transform="translate(-1.15 -105.4)"><polyline class="cls-1" points="-200.91 860.7 -160.67 157.89 920.6 -140.23 880.36 562.58 -200.91 860.7"/></clipPath><clipPath id="clip-path-6" transform="translate(-1.15 -105.4)"><polyline class="cls-1" points="268.6 731.25 -168.61 296.61 451.1 -10.78 888.3 423.86 268.6 731.25"/></clipPath><clipPath id="clip-path-7" transform="translate(-1.15 -105.4)"><polyline class="cls-1" points="286.51 722.37 -116.02 348.89 433.18 -1.9 835.72 371.57 286.51 722.37"/></clipPath></defs><title>canvasaiLogo</title><g class="cls-2"><g class="cls-3"><g class="cls-4"><g class="cls-4"><g class="cls-4"><g class="cls-4"><g class="cls-5"><g class="cls-6"><path class="cls-7" d="M230.75,260.66c-21.72,3.44-43.1-.8-56.06-12.82-20.51-19-12.25-50.43,18.42-70a92.85,92.85,0,0,1,8.68-4.91A98.49,98.49,0,0,1,229.86,164c21.72-3.44,43.09.81,56,12.83,20.5,19,12.25,50.43-18.41,70a95.32,95.32,0,0,1-8.69,4.91,98.05,98.05,0,0,1-17.36,6.61,96.21,96.21,0,0,1-10.69,2.31m-3.52-117.61a138.2,138.2,0,0,0-15,3.24,135.28,135.28,0,0,0-24,9.16,123.12,123.12,0,0,0-11.93,6.74h0l-.1.06,0,0-.07.05c-38.16,24.49-51.14,62.43-33.07,90l3.19-4.35,24.59,8.49-9.7,13.28c19.08,12.14,45.63,16.09,72.29,11.87a137.26,137.26,0,0,0,31.25-8.86l-7.39-8.32,24.28-13.35,7.39,8.32c31.37-22.1,43.62-53.62,33-79L301.55,183,300,161.94l7.53-1c-19.16-16.78-49.68-22.75-80.33-17.9" transform="translate(-1.15 -105.4)"/><path class="cls-7" d="M96.94,444.73c-21.73,3.44-43.11-.8-56.07-12.81-20.5-19-12.24-50.45,18.42-70A93,93,0,0,1,68,357a97.71,97.71,0,0,1,17.37-6.62A98.92,98.92,0,0,1,96,348.05c21.73-3.44,43.12.81,56.07,12.83,20.51,19,12.24,50.44-18.42,70a90.11,90.11,0,0,1-8.67,4.9,99.07,99.07,0,0,1-17.38,6.62,96,96,0,0,1-10.68,2.31M87.55,328.18c-3,.63-6.08,1.35-9.1,2.18a135.57,135.57,0,0,0-24,9.16,127.89,127.89,0,0,0-11.95,6.75C-.87,374-11.89,418.94,17.9,446.58,34.46,462,60.2,468.76,87.23,467L83.34,463l23.83-13.83,11.52,12.08a132.82,132.82,0,0,0,19.87-7.95,122.25,122.25,0,0,0,11.95-6.74c22.62-14.44,36.44-33.62,40.23-52.58l-12.64,1.73-1.71-21.08,14.27-2a51,51,0,0,0-15.6-26.43c-13.57-12.6-33.31-19.44-54.86-20.55l-11,15-24.58-8.5,2.91-4" transform="translate(-1.15 -105.4)"/><path class="cls-7" d="M226.64,591.65c-21.72,3.44-43.1-.81-56-12.82-20.51-19-12.24-50.45,18.42-70a94,94,0,0,1,8.69-4.91,97,97,0,0,1,17.36-6.61A98.58,98.58,0,0,1,225.75,495c21.72-3.44,43.1.8,56.05,12.83,20.51,19,12.25,50.43-18.41,70a95.32,95.32,0,0,1-8.69,4.91,97.76,97.76,0,0,1-17.36,6.61,98.75,98.75,0,0,1-10.7,2.32M223.11,474a135.85,135.85,0,0,0-15,3.24,134.38,134.38,0,0,0-24,9.15,131.53,131.53,0,0,0-12,6.75,115,115,0,0,0-13.44,10l10.4,10.9-23.82,13.83-4.25-4.44c-15.1,24.06-13.83,51.12,6.55,70,19.06,17.7,50.31,24,81.69,19.08a137.46,137.46,0,0,0,14.95-3.23,134.42,134.42,0,0,0,24-9.16,126.37,126.37,0,0,0,11.94-6.74A106.89,106.89,0,0,0,304.07,573l-8,1.06L294.5,553l23.42-3.13c7.43-20.28,3.56-41.22-13.14-56.72a69.09,69.09,0,0,0-17.63-11.74l-6.73,9.26-24.63-8.43,6.1-8.4a125,125,0,0,0-38.78.24" transform="translate(-1.15 -105.4)"/><path class="cls-7" d="M489.24,556.88c-21.73,3.44-43.12-.81-56.08-12.83-20.5-19-12.23-50.44,18.43-70a93.17,93.17,0,0,1,8.7-4.91,97.8,97.8,0,0,1,17.36-6.62,98.87,98.87,0,0,1,10.68-2.31c21.73-3.44,43.1.8,56.05,12.82,20.51,19,12.25,50.45-18.41,70a89.44,89.44,0,0,1-8.68,4.91,96.66,96.66,0,0,1-17.37,6.62,98.41,98.41,0,0,1-10.68,2.32m-3.53-117.61a137,137,0,0,0-31.65,9l6.25,7.18-24.39,13.22-6.08-7c-30.62,21.75-42.87,52.51-33.1,77.6l20.1-2.7,1.61,21.1-8.16,1.1c19.07,17.62,50.26,24,81.59,19a137.8,137.8,0,0,0,14.94-3.23,135.76,135.76,0,0,0,24-9.16A124.7,124.7,0,0,0,542.3,559l.25-.16.14-.09,1.21-.78c37.92-24.78,50.39-63,31.51-90.34L571.59,473l-24.7-8.33L557,450.53c-19-11.66-45.12-15.41-71.31-11.26" transform="translate(-1.15 -105.4)"/><path class="cls-7" d="M622,373c-21.73,3.44-43.11-.8-56.07-12.82-20.51-19-12.24-50.44,18.41-70a95.23,95.23,0,0,1,8.69-4.9,97.13,97.13,0,0,1,17.37-6.62,95.55,95.55,0,0,1,10.68-2.31c21.73-3.44,43.11.81,56.07,12.82,20.5,19,12.24,50.44-18.43,70A91.74,91.74,0,0,1,650,364,97.46,97.46,0,0,1,622,373m9.33-119,3.9,4.54-24.49,13.11-10.38-12.1a135.81,135.81,0,0,0-20.91,8.26,129.93,129.93,0,0,0-11.94,6.74c-22.44,14.34-36.21,33.32-40.14,52.13L539.49,325,541.22,346l-14,1.9A50.84,50.84,0,0,0,543,374.8c13.34,12.37,32.6,19.2,53.72,20.48L608,379.55l24.69,8.34-3.75,5.23c3.56-.68,7.13-1.51,10.67-2.49a134.57,134.57,0,0,0,24-9.15,127.79,127.79,0,0,0,12-6.74c43.33-27.68,54.35-72.69,24.56-100.33-16.45-15.26-42-22.08-68.8-20.48" transform="translate(-1.15 -105.4)"/><path class="cls-7" d="M493,224.64c-21.72,3.44-43.1-.8-56.05-12.83-20.51-19-12.25-50.43,18.41-70a90.8,90.8,0,0,1,8.69-4.91,98.29,98.29,0,0,1,17.38-6.62A96.21,96.21,0,0,1,492.13,128c21.72-3.44,43.1.8,56,12.82,20.51,19,12.24,50.44-18.42,70a89.77,89.77,0,0,1-8.69,4.9,97.75,97.75,0,0,1-17.37,6.63A101.5,101.5,0,0,1,493,224.64M489.5,107a138.42,138.42,0,0,0-15,3.25,134.47,134.47,0,0,0-24,9.15,126.53,126.53,0,0,0-11.95,6.74,106.52,106.52,0,0,0-24.09,20.74l5.37-.71,1.53,21.1L400.76,170c-7.31,20.21-3.41,41.05,13.23,56.48a69.54,69.54,0,0,0,18.55,12.17l7-9.64,24.63,8.43L458,246a125.74,125.74,0,0,0,37.66-.4,140.8,140.8,0,0,0,15-3.24,134.8,134.8,0,0,0,24-9.16,127.48,127.48,0,0,0,11.93-6.74A115.1,115.1,0,0,0,562,214.74L550,200.85l24.49-13.11,4.84,5.63c13.33-23.35,11.39-49.07-8.23-67.25-19.06-17.69-50.28-24.05-81.64-19.09" transform="translate(-1.15 -105.4)"/><path class="cls-7" d="M358.93,407.47c-21.72,3.44-43.1-.81-56-12.82-20.51-19-12.25-50.45,18.41-70a95.23,95.23,0,0,1,8.69-4.9,98.74,98.74,0,0,1,28.07-8.93c21.72-3.44,43.09.8,56,12.82,20.51,19,12.25,50.44-18.42,70a95.32,95.32,0,0,1-8.69,4.91,97.76,97.76,0,0,1-17.36,6.61,98.75,98.75,0,0,1-10.7,2.32M355.4,289.86A137.1,137.1,0,0,0,324,298.8l7.88,8.89L307.57,321l-7.86-8.84c-20.19,14.29-32.42,32.49-35.67,50.41l13.43-1.83,1.74,21.08-14.66,2a51.1,51.1,0,0,0,15.36,25.46A69.8,69.8,0,0,0,299.52,422l7.65-10.55,24.64,8.43L325.18,429a125.94,125.94,0,0,0,36.41-.57A137.54,137.54,0,0,0,393,419.47l-6.76-7.76,24.38-13.22,6.63,7.6c19.28-13.63,31.31-30.82,35.2-47.93l-12.3,1.69-1.72-21.08,14.54-2a50.78,50.78,0,0,0-15.87-27.85,68.75,68.75,0,0,0-16.62-11.25l-7.66,10.55-24.64-8.42,7.24-10a124.24,124.24,0,0,0-40,0" transform="translate(-1.15 -105.4)"/><polyline class="cls-7" points="409.45 293.09 385.06 306.31 391.83 314.07 428.68 356.31 434.77 363.29 459.16 350.07 452.9 342.89 416.08 300.69 409.45 293.09"/><polyline class="cls-7" points="280.35 145.66 256.08 159.01 263.47 167.33 298.56 206.79 306.41 215.63 330.68 202.28 322.79 193.4 287.75 153.97 280.35 145.66"/><polyline class="cls-7" points="175.23 269.18 176.95 290.27 189.59 288.54 263.4 278.45 278.05 276.44 276.31 255.36 262.88 257.2 189.5 267.23 175.23 269.18"/><polyline class="cls-7" points="437.25 233.36 438.98 254.45 451.28 252.76 526.12 242.53 540.07 240.62 538.34 219.54 526.22 221.21 451.79 231.38 437.25 233.36"/><polyline class="cls-7" points="438.38 123.62 431.39 133.26 394.25 184.43 387.01 194.41 411.64 202.83 419.31 192.28 456.83 140.56 463.02 132.05 438.38 123.62"/><polyline class="cls-7" points="306.02 306 298.36 316.55 260.74 368.4 254.63 376.8 279.27 385.23 285.99 375.97 324.02 323.56 330.66 314.43 306.02 306"/><polyline class="cls-7" points="606.83 274.15 595.52 289.88 555.86 345.13 545.73 359.23 570.43 367.56 574.26 362.22 627.78 287.72 631.52 282.49 606.83 274.15"/><polyline class="cls-7" points="573.37 82.34 548.88 95.45 560.8 109.33 599.21 154.08 609.59 166.17 634.08 153.07 630.18 148.53 578.21 87.97 573.37 82.34"/><polyline class="cls-7" points="298.87 56.54 300.39 77.64 320.71 74.97 399.61 64.61 420.19 61.9 418.66 40.8 413.3 41.5 306.41 55.55 298.87 56.54"/><polyline class="cls-7" points="145.03 142.55 141.84 146.9 86.39 222.78 83.49 226.77 108.07 235.27 119.04 220.25 159.93 164.32 169.63 151.04 145.03 142.55"/><polyline class="cls-7" points="106.01 343.73 82.19 357.56 86.07 361.63 139.91 418.07 144.15 422.51 167.97 408.68 157.58 397.78 117.54 355.81 106.01 343.73"/><polyline class="cls-7" points="293.35 447.56 294.96 468.65 302.92 467.58 409.14 453.4 417.3 452.31 415.69 431.21 395.58 433.91 316.76 444.43 293.35 447.56"/></g></g></g></g></g></g></g></g></svg>